# xmcd
#
# Track frame offsets: 
#        150
#        20592
#        40925
#        63967
#        87347
#        102760
#        125333
#        146973
#
# Disc length: 2253 seconds
#
# Revision: 0
# Processed by: cddbd v1.5.2PL0 Copyright (c) Steve Scherf et al.
# Submitted via: ExactAudioCopy v1.2
#
DISCID=6a08cb08
DTITLE=Christiane Moukory - É Ndolo
DYEAR=2018
DGENRE=Gospel
TTITLE0=Massoma
TTITLE1=Welisane
TTITLE2=Betansedi
TTITLE3=Na Tondi Oa
TTITLE4=Ese Ndolo
TTITLE5=Tu Es Digne
TTITLE6=Ya Na Mba
TTITLE7=Loba La Ngum
EXTD=
EXTT0=
EXTT1=
EXTT2=
EXTT3=
EXTT4=
EXTT5=
EXTT6=
EXTT7=
PLAYORDER=
